<?xml version="1.0"?><svg version="1.1" id="Layer_1" xmlns="http://www.w3.org/2000/svg" xmlns:xlink="http://www.w3.org/1999/xlink" x="0px" y="0px" width="138.938px" height="39.994px" viewBox="0 0 138.938 39.994" enable-background="new 0 0 138.938 39.994" xml:space="preserve"><g><defs><path id="SVGID_1_" d="M0.537,23.027C0.179,22.104,0,20.626,0,18.595c0-3.001,0.427-5.852,1.281-8.553c0.208-0.67,0.548-1.16,1.021-1.472C2.776,8.259,3.44,8.103,4.294,8.103c0.461,0,0.785,0.058,0.97,0.173c0.184,0.116,0.277,0.335,0.277,0.658c0,0.369-0.173,1.2-0.52,2.493c-0.231,0.924-0.416,1.726-0.554,2.406c-0.138,0.682-0.254,1.53-0.346,2.546c0.623-1.801,1.368-3.325,2.233-4.571c0.866-1.247,1.755-2.176,2.667-2.788c0.912-0.611,1.771-0.917,2.58-0.917c0.808,0,1.379,0.185,1.714,0.554c0.335,0.369,0.502,0.935,0.502,1.697c0,0.739-0.22,2.077-0.658,4.016c-0.185,0.831-0.312,1.454-0.381,1.87c1.154-2.839,2.436-4.905,3.844-6.198s2.724-1.939,3.948-1.939c1.5,0,2.251,0.75,2.251,2.251c0,0.9-0.254,2.527-0.762,4.882c-0.439,2.008-0.658,3.336-0.658,3.982c0,0.923,0.334,1.385,1.004,1.385c0.461,0,1.009-0.282,1.645-0.848c0.634-0.566,1.483-1.483,2.545-2.753c0.277-0.323,0.589-0.485,0.935-0.485c0.3,0,0.537,0.139,0.71,0.416c0.173,0.276,0.259,0.658,0.259,1.142c0,0.924-0.219,1.64-0.658,2.147c-0.993,1.224-2.061,2.228-3.203,3.013c-1.143,0.785-2.442,1.177-3.896,1.177c-1.178,0-2.067-0.34-2.667-1.022c-0.601-0.68-0.901-1.667-0.901-2.96c0-0.646,0.161-1.801,0.485-3.463c0.3-1.454,0.45-2.458,0.45-3.012c0-0.369-0.127-0.554-0.381-0.554c-0.3,0-0.727,0.386-1.281,1.16c-0.554,0.773-1.108,1.795-1.663,3.064c-0.554,1.27-1.004,2.609-1.35,4.017c-0.254,1.108-0.549,1.847-0.883,2.216c-0.335,0.369-0.872,0.554-1.61,0.554c-0.762,0-1.333-0.364-1.714-1.091c-0.381-0.727-0.571-1.61-0.571-2.649c0-0.877,0.115-2.147,0.346-3.809c0.185-1.477,0.277-2.446,0.277-2.908c0-0.369-0.127-0.554-0.381-0.554c-0.346,0-0.785,0.415-1.316,1.246S6.54,16.54,6.043,17.833s-0.895,2.562-1.195,3.809C4.594,22.727,4.3,23.46,3.965,23.841c-0.335,0.38-0.861,0.571-1.576,0.571C1.512,24.412,0.895,23.95,0.537,23.027z"></path></defs><clipPath id="SVGID_2_"><use xlink:href="#SVGID_1_" overflow="visible"></use></clipPath><g clip-path="url(#SVGID_2_)"><defs><rect id="SVGID_3_" x="-40.031" y="-33.003" width="1440" height="4739"></rect></defs><clipPath id="SVGID_4_"><use xlink:href="#SVGID_3_" overflow="visible"></use></clipPath><rect x="-5" y="3.103" clip-path="url(#SVGID_4_)" fill="#FFFFFF" width="38.501" height="26.309"></rect></g></g></svg>